<svg width="32" height="32" viewBox="0 0 32 32" fill="none" xmlns="http://www.w3.org/2000/svg">
<rect width="32" height="32" rx="4" fill="url(#paint0_linear_608_3581)"/>
<rect x="9" y="10" width="14" height="12" fill="white"/>
<path fill-rule="evenodd" clip-rule="evenodd" d="M16 26C11.286 26 8.929 26 7.464 24.535C6 23.072 6 20.714 6 16C6 11.286 6 8.929 7.464 7.464C8.93 6 11.286 6 16 6C20.714 6 23.071 6 24.535 7.464C26 8.93 26 11.286 26 16C26 20.714 26 23.071 24.535 24.535C23.072 26 20.714 26 16 26ZM12.75 10.5C12.75 10.3011 12.671 10.1103 12.5303 9.96967C12.3897 9.82902 12.1989 9.75 12 9.75C11.8011 9.75 11.6103 9.82902 11.4697 9.96967C11.329 10.1103 11.25 10.3011 11.25 10.5V11.75H10C9.80109 11.75 9.61032 11.829 9.46967 11.9697C9.32902 12.1103 9.25 12.3011 9.25 12.5C9.25 12.6989 9.32902 12.8897 9.46967 13.0303C9.61032 13.171 9.80109 13.25 10 13.25H11.25V14.5C11.25 14.6989 11.329 14.8897 11.4697 15.0303C11.6103 15.171 11.8011 15.25 12 15.25C12.1989 15.25 12.3897 15.171 12.5303 15.0303C12.671 14.8897 12.75 14.6989 12.75 14.5V13.25H14C14.1989 13.25 14.3897 13.171 14.5303 13.0303C14.671 12.8897 14.75 12.6989 14.75 12.5C14.75 12.3011 14.671 12.1103 14.5303 11.9697C14.3897 11.829 14.1989 11.75 14 11.75H12.75V10.5ZM18 11.75C17.8011 11.75 17.6103 11.829 17.4697 11.9697C17.329 12.1103 17.25 12.3011 17.25 12.5C17.25 12.6989 17.329 12.8897 17.4697 13.0303C17.6103 13.171 17.8011 13.25 18 13.25H22C22.1989 13.25 22.3897 13.171 22.5303 13.0303C22.671 12.8897 22.75 12.6989 22.75 12.5C22.75 12.3011 22.671 12.1103 22.5303 11.9697C22.3897 11.829 22.1989 11.75 22 11.75H18ZM18 17.75C17.8011 17.75 17.6103 17.829 17.4697 17.9697C17.329 18.1103 17.25 18.3011 17.25 18.5C17.25 18.6989 17.329 18.8897 17.4697 19.0303C17.6103 19.171 17.8011 19.25 18 19.25H22C22.1989 19.25 22.3897 19.171 22.5303 19.0303C22.671 18.8897 22.75 18.6989 22.75 18.5C22.75 18.3011 22.671 18.1103 22.5303 17.9697C22.3897 17.829 22.1989 17.75 22 17.75H18ZM11.03 17.97C10.8878 17.8375 10.6998 17.7654 10.5055 17.7688C10.3112 17.7723 10.1258 17.851 9.98838 17.9884C9.85097 18.1258 9.77225 18.3112 9.76883 18.5055C9.7654 18.6998 9.83752 18.8878 9.97 19.03L10.94 20L9.97 20.97C9.89631 21.0387 9.83721 21.1215 9.79622 21.2135C9.75523 21.3055 9.73319 21.4048 9.73141 21.5055C9.72963 21.6062 9.74816 21.7062 9.78588 21.7996C9.8236 21.893 9.87974 21.9778 9.95096 22.049C10.0222 22.1203 10.107 22.1764 10.2004 22.2141C10.2938 22.2518 10.3938 22.2704 10.4945 22.2686C10.5952 22.2668 10.6945 22.2448 10.7865 22.2038C10.8785 22.1628 10.9613 22.1037 11.03 22.03L12 21.06L12.97 22.03C13.0387 22.1037 13.1215 22.1628 13.2135 22.2038C13.3055 22.2448 13.4048 22.2668 13.5055 22.2686C13.6062 22.2704 13.7062 22.2518 13.7996 22.2141C13.893 22.1764 13.9778 22.1203 14.049 22.049C14.1203 21.9778 14.1764 21.893 14.2141 21.7996C14.2518 21.7062 14.2704 21.6062 14.2686 21.5055C14.2668 21.4048 14.2448 21.3055 14.2038 21.2135C14.1628 21.1215 14.1037 21.0387 14.03 20.97L13.06 20L14.03 19.03C14.1037 18.9613 14.1628 18.8785 14.2038 18.7865C14.2448 18.6945 14.2668 18.5952 14.2686 18.4945C14.2704 18.3938 14.2518 18.2938 14.2141 18.2004C14.1764 18.107 14.1203 18.0222 14.049 17.951C13.9778 17.8797 13.893 17.8236 13.7996 17.7859C13.7062 17.7482 13.6062 17.7296 13.5055 17.7314C13.4048 17.7332 13.3055 17.7552 13.2135 17.7962C13.1215 17.8372 13.0387 17.8963 12.97 17.97L12 18.94L11.03 17.97ZM18 20.75C17.8011 20.75 17.6103 20.829 17.4697 20.9697C17.329 21.1103 17.25 21.3011 17.25 21.5C17.25 21.6989 17.329 21.8897 17.4697 22.0303C17.6103 22.171 17.8011 22.25 18 22.25H22C22.1989 22.25 22.3897 22.171 22.5303 22.0303C22.671 21.8897 22.75 21.6989 22.75 21.5C22.75 21.3011 22.671 21.1103 22.5303 20.9697C22.3897 20.829 22.1989 20.75 22 20.75H18Z" fill="url(#paint1_linear_608_3581)"/>
<defs>
<linearGradient id="paint0_linear_608_3581" x1="16" y1="0" x2="16" y2="32" gradientUnits="userSpaceOnUse">
<stop stop-color="#DEDEBE"/>
<stop offset="1" stop-color="#E4FCD6"/>
</linearGradient>
<linearGradient id="paint1_linear_608_3581" x1="16" y1="6" x2="16" y2="26" gradientUnits="userSpaceOnUse">
<stop/>
<stop offset="1" stop-color="#2B2B2B"/>
</linearGradient>
</defs>
</svg>
